<svg width="779" height="808" viewBox="0 0 779 808" fill="none" xmlns="http://www.w3.org/2000/svg">
<path fill-rule="evenodd" clip-rule="evenodd" d="M224.652 156.314C293.758 136.597 344.425 215.398 412.819 237.458C485.655 260.951 578.664 225.25 625.655 285.655C687.826 365.575 724.496 484.047 672.004 570.632C619.139 657.831 495.904 686.405 396.507 663.631C318.424 645.74 323.464 531.425 264.453 477.252C198.129 416.367 57.2904 431.407 46.2099 342.059C35.0929 252.416 137.788 181.098 224.652 156.314Z" fill="#FF6A6A"/>
<path fill-rule="evenodd" clip-rule="evenodd" d="M506.738 176.49C511.346 171.081 514.464 164.453 513.943 157.025C512.442 135.625 482.651 140.333 476.857 151.134C471.062 161.935 471.75 189.333 479.24 191.263C482.226 192.033 488.589 190.147 495.065 186.244L491 215H515L506.738 176.49Z" fill="#D39928"/>
<path fill-rule="evenodd" clip-rule="evenodd" d="M508.582 181.308C511.594 167.906 520.175 158.771 518.865 152.782C517.991 148.789 515.662 146.305 511.879 145.332C509.922 137.416 503.61 134.048 492.944 135.23C476.945 137.004 467.181 143.648 471.398 158.268C475.274 158.268 479.954 156.866 486.424 159.268C488.478 160.03 489.946 162.393 490.83 166.358H493.754C496.592 161.653 499.391 159.924 502.149 161.171C504.908 162.418 505.535 165.447 504.03 170.259L505.471 181.308H508.582Z" fill="#191847"/>
<path fill-rule="evenodd" clip-rule="evenodd" d="M582 340H467C458.163 340 451 347.163 451 356V448C451 456.837 458.163 464 467 464H582C590.837 464 598 456.837 598 448V356C598 347.163 590.837 340 582 340ZM566 368C568.209 368 570 369.791 570 372V432C570 434.209 568.209 436 566 436H483C480.791 436 479 434.209 479 432V372C479 369.791 480.791 368 483 368H566Z" fill="#C5CFD6"/>
<path fill-rule="evenodd" clip-rule="evenodd" d="M351.841 459C371.557 434.924 384.897 417.075 391.862 405.454C403.787 385.555 413.547 367.848 416.627 361.084C423.972 344.955 399.718 337.403 394.229 344.926C385.921 356.312 368.178 392.143 341 452.417L351.841 459Z" fill="#B28B67"/>
<path fill-rule="evenodd" clip-rule="evenodd" d="M392.242 452L428.935 359.637C436.783 342.8 398.884 331.732 393.117 339.568C380.023 357.357 348.901 427.534 345 432.834L392.242 452Z" fill="#2F3676"/>
<path fill-rule="evenodd" clip-rule="evenodd" d="M489.967 433.477C482.819 423.051 456.821 387.974 442.661 373.461C438.592 369.291 434.621 365.288 430.866 361.557C419.704 350.47 397.476 369.106 408.618 379.205C436.365 404.355 476.849 438.307 480.231 441.334C484.972 445.577 494.459 440.029 489.967 433.477Z" fill="#915B3C"/>
<path fill-rule="evenodd" clip-rule="evenodd" d="M488.295 428.767C490.758 430.794 492.359 432.45 493.101 433.734C494.002 435.296 495.058 437.725 496.267 441.021C494.456 442.067 478.174 451.467 447.422 469.222C443.73 465.759 443.155 463.07 445.696 461.157C448.238 459.243 450.335 457.629 451.988 456.315L468.848 433.087C469.172 432.64 469.798 432.54 470.244 432.865C470.252 432.87 470.26 432.876 470.267 432.882L473.77 435.579C476.984 435.299 479.382 434.702 480.965 433.788C482.251 433.045 483.727 431.501 485.393 429.154L485.393 429.154C486.033 428.253 487.281 428.041 488.182 428.681C488.221 428.708 488.259 428.737 488.295 428.767Z" fill="#E4E4E4"/>
<path fill-rule="evenodd" clip-rule="evenodd" d="M360.322 455.402C361.441 458.388 362 460.623 362 462.106C362 463.909 361.7 466.54 361.099 470C359.007 470 340.206 470 304.697 470C303.231 465.154 304.077 462.539 307.235 462.152C310.393 461.766 313.016 461.417 315.105 461.106L341.32 449.419C341.824 449.194 342.416 449.421 342.641 449.925C342.644 449.934 342.648 449.942 342.652 449.951L344.337 454.039C347.26 455.403 349.636 456.085 351.463 456.085C352.948 456.085 354.999 455.485 357.616 454.285L357.616 454.285C358.62 453.825 359.807 454.266 360.267 455.27C360.287 455.313 360.305 455.357 360.322 455.402Z" fill="#E4E4E4"/>
<path fill-rule="evenodd" clip-rule="evenodd" d="M440.698 358.948C471.195 353.98 491.622 350.582 501.98 348.756C531.503 343.55 540.112 327.663 535.022 293H480.626C473.427 295.079 443.35 307.935 390.393 331.569C380.865 336.299 382.639 350.245 384.381 354.84C384.452 355.027 400.514 382.551 432.568 437.411L477.066 409.063L440.614 362.288C439.652 360.349 439.68 359.236 440.698 358.948Z" fill="#5C63AB"/>
<path fill-rule="evenodd" clip-rule="evenodd" d="M438.219 285.211L406.32 308.635C397.669 310.97 390.441 313.874 384.636 317.349C383.265 318.598 381.608 321.128 387.295 320.691C392.981 320.254 398.982 320.049 399.767 321.989C400.551 323.929 397.11 326.248 398.696 328.865C399.754 330.61 404.749 326.235 413.683 315.741L445.27 302.642L438.219 285.211ZM560.692 286.02L539.795 286.102C552.698 327.756 559.664 349.857 560.692 352.406C563.006 358.14 558.109 366.874 556.015 371.567C562.835 374.619 562.109 363.317 570.712 367.319C578.565 370.973 584.538 377.592 593.611 371.994C594.726 371.306 595.949 368.715 592.995 366.69C585.638 361.645 575.035 352.815 573.602 349.908C571.648 345.945 567.345 324.649 560.692 286.02Z" fill="#D39928"/>
<path fill-rule="evenodd" clip-rule="evenodd" d="M501.305 198.332L492.658 196.849C460.575 224.564 447.397 277.809 408.07 306.015L417.536 317.748C485.76 309.301 502.67 244.355 501.305 198.332Z" fill="#E87613"/>
<path fill-rule="evenodd" clip-rule="evenodd" d="M539 307C504.328 307 478.824 307 462.489 307C458.992 307 459.651 301.952 460.157 299.404C465.989 270.004 488.759 238.312 488.759 196.461L510.828 193C529.083 222.358 535.395 258.505 539 307Z" fill="#DDE3E9"/>
<path fill-rule="evenodd" clip-rule="evenodd" d="M538.385 221.858C541.59 220.937 544.129 218.788 546 215.411C554.066 200.856 551.153 192.842 542.533 190.208C533.912 187.574 526.225 193 512.49 193C511.743 193 511.059 193.047 510.437 193.141L503.528 193.535C483.706 260.715 478.239 305.537 487.128 328H547.348C550.916 336.32 554.33 343.32 557.591 349H574C575.544 299.067 563.673 256.686 538.385 221.858Z" fill="#FF9B21"/>
<path fill-rule="evenodd" clip-rule="evenodd" d="M534.235 293.498C532.341 309.344 529.263 320.845 525 328H547.348C543.186 318.295 538.815 306.794 534.235 293.498V293.498Z" fill="black" fill-opacity="0.1"/>
</svg>
