<svg width="750" height="580" viewBox="0 0 750 580" fill="none" xmlns="http://www.w3.org/2000/svg">
<path fill-rule="evenodd" clip-rule="evenodd" d="M371.89 50.039C439.07 60.7596 514.704 49.2436 567.673 84.695C619.646 119.479 616.475 182.734 644.648 232.59C678.386 292.296 760.942 340.197 748.789 405.214C736.553 470.681 656.787 513.88 586.045 546.117C521.139 575.694 445.425 585.679 371.89 576.967C305.223 569.068 256.132 528.76 198.525 500.205C133.982 468.212 47.6442 455.519 14.7847 399.955C-19.1058 342.647 13.7557 276.409 29.2892 214.032C47.0499 142.71 34.6105 48.6536 111.423 11.886C189.455 -25.4658 283.147 35.8772 371.89 50.039Z" fill="#EEACFF"/>
<path fill-rule="evenodd" clip-rule="evenodd" d="M285.262 183.49C280.654 178.081 277.536 171.453 278.057 164.025C279.558 142.625 309.349 147.333 315.143 158.134C320.938 168.935 320.25 196.333 312.76 198.263C309.774 199.033 303.411 197.147 296.935 193.244L301 222H277L285.262 183.49Z" fill="#D39928"/>
<path fill-rule="evenodd" clip-rule="evenodd" d="M283.418 188.308C280.406 174.906 271.825 165.771 273.135 159.782C274.009 155.789 276.338 153.305 280.121 152.332C282.078 144.416 288.39 141.048 299.056 142.23C315.055 144.004 324.819 150.648 320.602 165.268C316.726 165.268 312.046 163.866 305.576 166.268C303.522 167.03 302.054 169.393 301.17 173.358H298.246C295.408 168.653 292.609 166.924 289.851 168.171C287.092 169.418 286.465 172.447 287.97 177.259L286.529 188.308H283.418Z" fill="#191847"/>
<path fill-rule="evenodd" clip-rule="evenodd" d="M271.426 318L319.508 445.227L353.209 539H372.426L326.1 318L271.426 318Z" fill="#1F28CF"/>
<path fill-rule="evenodd" clip-rule="evenodd" d="M259.543 318C259.02 361.654 259.398 420.427 258.18 423.149C257.368 424.963 232.117 445.632 182.426 485.157L192.331 502C251.325 463.956 282.331 442.399 285.347 437.331C289.871 429.728 312.6 359.763 324.426 318H259.543Z" fill="#2B44FF"/>
<path fill-rule="evenodd" clip-rule="evenodd" d="M165 496.491L181.73 483.759L195.228 499.846C196.267 511.973 200.282 525.574 207.274 540.649L204.21 543.22L179.784 514.11L172.96 502.866L171.428 504.152L165 496.491Z" fill="#191847"/>
<path fill-rule="evenodd" clip-rule="evenodd" d="M351.426 557L352.426 536H373.426C383.384 543 396.384 548.667 412.426 553V557H374.426L361.426 555V557H351.426Z" fill="#191847"/>
<path fill-rule="evenodd" clip-rule="evenodd" d="M351.359 298.61L381.545 324.202C390.013 327.134 397.021 330.536 402.569 334.407C403.85 335.749 405.326 338.388 399.684 337.556C394.042 336.723 388.07 336.1 387.152 337.98C386.234 339.861 389.505 342.414 387.74 344.914C386.564 346.581 381.885 341.869 373.706 330.777L343.109 315.507L351.359 298.61ZM214.667 287.536L232.379 290.108C213.367 331.358 203.174 353.173 201.801 355.554C198.712 360.91 202.345 370.241 203.766 375.18C196.587 377.253 198.88 366.162 189.803 368.928C181.518 371.453 174.682 377.177 166.476 370.37C165.468 369.534 164.618 366.797 167.824 365.203C175.813 361.231 187.541 353.963 189.364 351.284C191.851 347.631 200.285 326.382 214.667 287.536Z" fill="#B28B67"/>
<path fill-rule="evenodd" clip-rule="evenodd" d="M288.695 215.332L299.67 211.703C314.557 248.893 336.761 284.876 373.857 315.27L364.684 331.097C332.081 311.892 301.219 296.973 288.695 268.155C284.492 258.483 288.352 226.897 288.695 215.332Z" fill="#C5CFD6"/>
<path fill-rule="evenodd" clip-rule="evenodd" d="M251 320C282.438 323.333 307.184 323.333 325.236 320C327.473 319.587 327.826 315.842 326.788 313.301C310.636 273.724 299.56 239.192 299.56 211.703C296.597 213.197 291.41 213.421 284 212.374C264.086 240.703 254.933 273.206 251 320Z" fill="#323337"/>
<path fill-rule="evenodd" clip-rule="evenodd" d="M279.049 210H287.348C289.281 221.365 295.376 375.263 314.191 425.606H212.385C214.592 379.487 232.003 324.088 249.64 277.728C234.044 292 220.452 316.181 208.862 350.273L189.793 345.378C203.971 284.281 233.122 239.375 277.246 210.659C277.342 210.438 277.437 210.219 277.532 210H278.266C278.536 209.827 278.807 209.654 279.079 209.481L279.049 210Z" fill="#DDE3E9"/>
<path d="M471.233 152.236L489.8 133.656C492.924 130.531 497.989 130.53 501.114 133.653C501.115 133.654 501.116 133.655 501.117 133.656L550.549 183.113C553.548 186.114 555.233 190.182 555.233 194.425V522" stroke="#CBCBCB" stroke-width="8"/>
<path d="M581.233 521H528.233C526.576 521 525.233 522.343 525.233 524V525C525.233 526.657 526.576 528 528.233 528H581.233C582.89 528 584.233 526.657 584.233 525V524C584.233 522.343 582.89 521 581.233 521Z" fill="#AFB9C5"/>
<path fill-rule="evenodd" clip-rule="evenodd" d="M482.401 141.335C495.288 154.222 495.288 175.116 482.401 188.004L462.602 207.803L415.933 161.134L435.732 141.335C448.619 128.447 469.513 128.447 482.401 141.335Z" fill="#C5CFD6"/>
<path d="M435.461 188.527C448.348 201.414 460.853 209.804 463.392 207.265C465.93 204.727 457.54 192.222 444.653 179.335C431.766 166.447 419.261 158.058 416.722 160.596C414.184 163.135 422.574 175.64 435.461 188.527Z" fill="#F2F2F2"/>
</svg>
