<svg width="366" height="364" viewBox="0 0 366 364" fill="none" xmlns="http://www.w3.org/2000/svg">
<path fill-rule="evenodd" clip-rule="evenodd" d="M221.453 294.177C195.222 297.37 169.397 312.031 144.471 301.881C120.014 291.922 111.23 261.855 93.1001 241.91C71.3882 218.026 33.695 205.656 27.9156 173.663C22.0963 141.448 44.4507 111.416 65.2311 87.631C84.297 65.8088 110.392 51.8564 138.629 46.9433C164.229 42.489 188.501 55.3927 214.038 61.7395C242.649 68.8504 276.19 64.2379 296.93 86.2868C318.321 109.027 316.725 144.128 320.854 175.297C325.576 210.935 344.905 253.544 322.619 280.197C299.978 307.274 256.104 289.96 221.453 294.177Z" fill="#F1C21B"/>
</svg>
