<svg width="537" height="490" viewBox="0 0 537 490" fill="none" xmlns="http://www.w3.org/2000/svg">
<path fill-rule="evenodd" clip-rule="evenodd" d="M261.713 2.97283C315.674 -4.39471 373.927 0.740854 418.43 31.9404C463.205 63.3314 480.088 118.546 499.292 169.535C519.435 223.016 548.837 278.866 531.991 333.46C515.062 388.326 463.898 426.405 412.158 451.925C365.888 474.746 313.222 462.865 261.713 466.768C204.353 471.113 139.627 510.361 93.6176 476.057C47.5137 441.683 71.1692 367.898 55.2784 312.852C40.2253 260.708 -13.5077 214.423 3.17729 162.771C19.8606 111.125 87.093 99.5038 133.452 70.8494C175.614 44.7896 212.518 9.68952 261.713 2.97283Z" fill="#F1C21B"/>
</svg>
