<svg width="396" height="455" viewBox="0 0 396 455" fill="none" xmlns="http://www.w3.org/2000/svg">
<path fill-rule="evenodd" clip-rule="evenodd" d="M188.493 0.217541C234.693 3.50275 262.534 49.5384 296.426 80.4073C325.602 106.981 355.587 131.817 371.991 167.348C389.993 206.342 401.236 248.65 393.541 290.764C385.075 337.1 364.571 382.593 327.232 412.31C288.774 442.918 237.766 459.444 188.493 453.959C141.735 448.754 105.158 415.382 70.955 383.783C40.7289 355.859 15.1229 323.378 4.58015 284.051C-5.547 246.273 2.74905 207.669 13.6732 170.105C25.0188 131.091 39.0903 92.7957 68.515 64.2011C101.634 32.0162 141.917 -3.09438 188.493 0.217541Z" fill="#F1C21B"/>
</svg>
