<svg width="637" height="533" viewBox="0 0 637 533" fill="none" xmlns="http://www.w3.org/2000/svg">
<path fill-rule="evenodd" clip-rule="evenodd" d="M288.102 1.04775C348.398 -5.26488 405.552 17.9326 460.208 44.1642C526.448 75.9555 624.611 95.4244 635.989 168.012C647.86 243.752 551.987 289.499 508.564 352.68C480.561 393.426 465.677 441.421 426.956 472.163C386.934 503.939 338.812 521.397 288.102 527.717C231.335 534.792 172.006 537.269 121.599 510.219C66.9963 480.919 13.6054 434.907 1.79056 374.076C-9.74578 314.679 37.2557 262.682 62.8746 207.867C84.7941 160.967 102.197 112.669 140.328 77.654C182.221 39.1856 231.536 6.96993 288.102 1.04775Z" fill="#F1C21B"/>
</svg>
